<svg version="1.1" id="Layer_1" xmlns="http://www.w3.org/2000/svg" xmlns:xlink="http://www.w3.org/1999/xlink" x="0px" y="0px"
	 width="100%" viewBox="0 0 1024 816" enable-background="new 0 0 1024 816" xml:space="preserve">
<path fill="#000000" opacity="1.000000" stroke="none" 
	d="
M585.587402,713.428528 
	C574.863525,712.428528 564.484985,712.079956 554.333679,710.376648 
	C530.012390,706.295898 505.605469,709.199890 481.248199,708.725830 
	C477.437714,708.651672 473.701965,708.561951 469.765411,707.800720 
	C470.487000,704.785522 473.033875,705.259766 474.633484,705.005554 
	C492.382294,702.184387 510.111481,699.316956 528.142456,698.610291 
	C539.916016,698.148865 551.712952,697.313599 563.410400,695.015930 
	C550.034851,692.557495 536.402405,692.754211 522.527649,691.674011 
	C528.278015,683.583557 535.011597,679.297852 544.418518,677.115540 
	C556.765015,674.251282 568.916016,670.436157 581.420715,669.084961 
	C581.789734,666.422974 579.273193,666.548767 579.097229,665.398132 
	C578.779907,663.883911 579.435303,663.081970 580.101685,662.352722 
	C583.705627,658.408569 584.792908,654.315063 584.767761,648.518005 
	C584.672363,626.508423 580.031677,604.746948 581.644287,582.677307 
	C581.985413,578.008911 582.034241,573.449707 583.958374,569.030029 
	C585.247070,566.069824 586.032349,562.757324 581.623596,561.262573 
	C579.659546,560.596741 579.821960,559.063049 580.297424,557.568176 
	C581.317688,554.360901 580.448669,551.773926 578.194702,549.356018 
	C576.002686,547.004761 575.283203,544.203186 576.452332,541.026428 
	C577.198303,538.999512 577.501648,536.778381 578.443909,534.860779 
	C581.507324,528.626770 580.299316,523.711853 574.474243,519.850159 
	C571.631287,517.965454 570.714905,514.818481 569.946960,511.740570 
	C569.309082,509.184418 568.049683,507.054474 565.300964,507.508667 
	C558.534302,508.626831 555.125732,504.039642 552.066101,499.637024 
	C549.386902,495.781830 546.299561,493.276276 541.735291,492.665192 
	C538.602234,492.245728 537.336670,490.071625 535.470459,487.785400 
	C528.996277,479.854065 525.291443,469.879944 516.943665,463.330261 
	C509.299194,457.332397 506.469940,449.604980 510.691193,440.356506 
	C513.360168,434.508942 511.931305,429.803253 507.896820,425.322052 
	C506.575500,423.854492 504.819641,422.128723 504.647491,420.384338 
	C503.718262,410.968353 497.493561,404.124115 493.522766,396.192535 
	C492.519379,394.188232 491.159973,392.605347 489.505585,391.177063 
	C484.334625,386.712708 479.124115,382.291351 474.048828,377.720154 
	C471.351562,375.290771 468.385834,373.557281 464.757416,373.337555 
	C461.721222,373.153717 460.248108,371.564178 459.791473,368.741760 
	C459.253204,365.414581 457.272278,363.097839 454.770966,360.971680 
	C435.727448,344.784180 416.700378,328.576721 397.765808,312.262177 
	C394.211700,309.199860 390.550354,306.879333 385.697540,307.284393 
	C382.659180,307.537994 381.424927,305.790527 381.146454,303.199799 
	C380.604095,298.153931 377.588745,294.893127 373.908630,291.750000 
	C362.379852,281.903625 351.662781,270.972229 339.418213,262.143524 
	C330.531647,255.736023 323.488129,247.531174 314.852814,240.991638 
	C297.321777,227.715302 280.441956,213.553879 262.595734,200.728455 
	C252.047623,193.147873 242.244324,184.698181 231.853683,176.966034 
	C221.293930,169.108063 210.910339,161.013382 200.447144,153.025574 
	C198.460281,151.508774 196.511932,149.920944 193.960648,149.410309 
	C173.984497,145.412033 163.172012,128.115646 168.308853,106.051193 
	C173.095703,85.490173 185.878845,71.447037 203.963440,61.451782 
	C233.020798,45.391941 263.959747,42.636669 296.042847,48.198135 
	C333.932983,54.766239 367.879425,71.060394 400.376984,90.916145 
	C443.055603,116.992371 478.876404,150.876801 512.063538,187.903564 
	C533.418152,211.728806 555.231812,235.131699 580.457458,255.068085 
	C614.849792,282.249115 654.069275,297.419006 697.335510,302.876678 
	C738.878967,308.117035 779.392395,303.230347 819.109741,290.652100 
	C827.865601,287.879211 836.278564,284.151428 842.998779,277.543976 
	C849.856384,270.801422 850.607178,264.205841 845.547058,255.955750 
	C841.274353,248.989456 835.172974,243.769424 828.693115,239.073685 
	C808.974182,224.784058 787.405579,214.717667 763.001343,211.661392 
	C735.918335,208.269653 715.463379,218.342453 700.773743,241.499725 
	C694.686829,251.095398 693.115173,261.931915 689.341064,272.147491 
	C688.431763,274.608948 688.234314,277.341949 686.653137,279.485443 
	C684.886353,279.849915 684.992981,278.092957 684.184326,277.375275 
	C682.158264,278.467651 681.893555,281.139771 679.545044,282.085388 
	C677.858521,280.051941 680.214539,278.433777 680.010254,276.549072 
	C678.181335,277.588257 677.821045,280.313293 675.051575,280.567352 
	C674.585327,277.577972 677.629211,276.035248 677.908875,273.042572 
	C673.593079,273.914368 668.316650,277.841370 665.950989,270.967041 
	C664.654114,267.198547 666.988464,264.546692 670.503540,262.895111 
	C672.366882,266.376984 665.579041,268.750946 669.757385,271.421478 
	C672.611877,273.245911 675.378174,270.762909 677.943604,268.323669 
	C674.413086,265.673462 678.786621,262.073456 676.242981,258.407715 
	C687.025452,255.986328 691.221802,247.114151 696.318359,238.862061 
	C707.321106,221.046906 722.130981,208.397125 743.868835,206.084442 
	C757.827576,204.599380 771.484924,206.491196 784.776062,210.776855 
	C807.585327,218.131577 828.422485,228.918030 845.267700,246.435120 
	C847.475220,248.730698 849.430298,251.214539 850.904968,254.039993 
	C856.883301,265.494263 854.692871,275.691711 844.514771,283.709198 
	C832.692322,293.022064 818.686768,297.456116 804.430481,300.993652 
	C774.697937,308.371460 744.465820,312.189331 713.847961,310.084625 
	C661.299377,306.472290 613.637512,289.735443 572.616333,255.759338 
	C547.876465,235.268356 526.192871,211.754868 504.833923,187.938019 
	C472.735870,152.146240 437.704193,119.857498 396.441528,94.761284 
	C367.099884,76.915466 336.491608,62.019199 302.614960,54.930843 
	C270.287079,48.166538 238.744247,49.276878 208.757736,64.978134 
	C191.782349,73.866631 179.012054,86.328033 174.160187,105.440338 
	C172.087555,113.604805 171.604889,121.885696 175.346542,129.863419 
	C177.550507,134.562653 181.094543,137.981979 185.544281,140.524887 
	C186.259735,140.933731 187.379913,141.714127 187.759674,141.468231 
	C193.215866,137.935287 195.860382,143.241501 198.899414,145.446320 
	C249.073944,181.847855 299.039520,218.512131 346.177551,258.884033 
	C392.244812,298.338867 438.419403,337.667206 484.114136,377.554443 
	C486.750397,379.855682 489.481415,382.056305 492.015533,384.464539 
	C494.733154,387.047180 497.398834,389.295349 501.594574,388.763763 
	C504.072418,388.449829 505.984528,390.156036 507.646332,391.830353 
	C511.519135,395.732269 515.323608,399.701965 519.159302,403.640778 
	C520.707703,405.230835 522.024292,406.290436 523.934509,403.743896 
	C527.135254,399.477020 532.979126,399.658508 536.604980,403.862579 
	C540.521423,408.403564 541.053772,415.677490 537.492920,420.853058 
	C536.327271,422.547241 537.026489,423.575134 537.671997,424.897125 
	C538.369873,426.326447 539.790161,427.605957 538.471985,429.816711 
	C532.033752,430.026947 529.454407,420.358459 521.985840,422.524506 
	C521.985840,423.357513 521.786255,423.983124 522.014771,424.301147 
	C529.899841,435.276672 534.577942,448.712952 546.737793,456.421051 
	C549.468201,458.151825 552.043152,459.834717 555.523865,458.883789 
	C558.193237,458.154572 560.317749,459.306366 562.306458,461.097412 
	C564.324524,462.914917 566.577393,464.264343 569.561157,463.171753 
	C576.926147,460.474945 584.406433,458.706848 592.112732,461.188171 
	C593.389160,459.187866 592.057861,458.221252 591.189026,457.022827 
	C587.009644,451.257690 586.317627,445.126282 589.557983,438.703522 
	C592.280579,433.307068 595.643677,428.353027 600.296692,424.418304 
	C603.334778,421.849182 605.760254,419.080231 605.508484,414.732178 
	C605.454895,413.806091 605.760376,412.556854 606.381104,411.941559 
	C611.693420,406.676086 616.745483,401.044586 622.621216,396.483246 
	C627.495728,392.699188 634.709778,395.054810 637.784668,400.388458 
	C641.229858,406.364349 644.882996,410.544769 653.280945,410.126373 
	C665.386353,409.523315 672.506958,421.099426 668.405457,432.850525 
	C665.546814,441.040955 659.597778,446.878937 652.948975,452.039764 
	C649.858337,454.438812 647.834229,457.036530 648.285889,461.270721 
	C648.554565,463.790222 649.531677,464.865234 651.975952,464.894775 
	C653.973022,464.918884 655.967651,465.096008 657.964661,465.169464 
	C666.763184,465.493134 674.635925,467.076172 682.702332,472.098907 
	C691.520508,477.589844 702.478088,479.758179 712.649292,482.902008 
	C716.226257,484.007629 719.560852,482.321594 721.056458,478.492798 
	C723.041992,473.409943 723.075134,468.075989 722.745911,462.723877 
	C722.725647,462.393738 722.755127,461.886169 722.566772,461.765839 
	C714.889221,456.860687 720.161255,447.953522 716.281860,441.543579 
	C713.584106,437.086060 717.579773,433.250885 723.038025,434.022156 
	C731.085876,435.159424 735.477051,440.027710 735.317566,448.132568 
	C735.156555,456.314514 735.385376,464.056366 740.211243,471.464142 
	C750.865784,487.818878 734.977295,510.431091 719.187866,512.937622 
	C708.722900,514.598877 698.547363,518.152954 687.796692,518.394348 
	C685.734314,518.440674 684.303589,519.349792 683.560059,521.273926 
	C682.831787,523.158203 683.817200,524.496887 685.101868,525.661438 
	C686.942017,527.329407 688.837402,528.936279 690.690430,530.552856 
	C687.319214,535.580994 687.319214,535.580994 690.627747,541.930908 
	C693.530396,547.501831 692.242493,553.113647 687.061218,556.755127 
	C683.776428,559.063721 680.623352,561.339294 678.600525,565.033875 
	C676.721619,568.465759 676.622559,571.459351 679.703918,573.953247 
	C683.061401,576.670654 683.271484,579.772827 682.300537,583.724915 
	C679.496094,595.140076 681.626709,606.611816 682.748474,617.996643 
	C683.471619,625.336182 684.360046,632.268921 680.965576,639.428772 
	C678.154419,645.358154 678.580383,652.311523 679.625000,658.639893 
	C680.245728,662.400330 684.136475,664.900818 688.378235,665.493164 
	C691.837769,665.976196 695.321838,666.283508 698.781311,666.766968 
	C700.742065,667.040955 702.795044,667.284485 704.151306,669.944153 
	C698.896301,675.164246 691.275452,673.874451 684.509888,676.502625 
	C698.053528,678.731018 711.370544,678.497742 723.892578,682.986145 
	C724.846802,683.328125 725.498962,684.123474 725.850281,686.032898 
	C716.783936,690.471741 706.699280,689.540283 696.311584,690.808594 
	C702.164185,696.050781 709.432983,694.521912 716.679504,697.317566 
	C710.190918,701.328369 703.619446,699.233521 697.503479,701.780762 
	C705.637939,704.265930 713.905151,701.373657 721.830078,704.355347 
	C720.768860,705.018738 720.118713,705.425232 718.824341,706.234375 
	C726.379456,707.273315 733.555542,706.041321 740.375427,707.976440 
	C740.395447,712.997986 736.929321,713.086487 733.353516,713.283203 
	C716.563049,714.207031 699.736389,714.546509 682.997253,716.306335 
	C680.530884,716.565613 678.086060,717.028931 674.154480,717.619873 
	C681.594604,721.438904 688.808167,720.107788 696.432556,722.782349 
	C690.900757,725.231750 685.503357,723.743347 680.957825,726.855408 
	C683.493774,731.481567 680.149048,732.357239 676.765320,732.617065 
	C668.142090,733.278931 659.502258,733.787842 650.859924,734.119751 
	C643.381897,734.406921 635.881348,734.162292 628.956238,735.185669 
	C643.390442,737.204285 658.325562,739.229919 673.430115,739.647522 
	C678.081787,739.776062 682.729248,740.352661 687.356750,740.907104 
	C689.045959,741.109436 691.065979,740.990051 692.441101,743.634583 
	C681.377747,747.285034 669.624756,744.951111 658.207031,748.543640 
	C663.326843,751.536438 668.568542,751.652588 673.520996,752.722595 
	C680.026794,754.128174 686.690979,754.819763 693.038269,756.931580 
	C695.715759,757.822449 698.004395,759.061768 694.081909,762.266907 
	C702.381104,763.423096 710.568420,762.938416 718.381470,765.984436 
	C717.227112,769.087036 714.830200,768.925842 712.862488,769.222595 
	C706.610840,770.165588 699.983948,769.941345 694.136414,771.983948 
	C679.493835,777.098877 664.375732,777.034119 649.570129,775.707153 
	C622.960999,773.322205 596.374329,775.111450 569.800354,774.185120 
	C568.827332,774.151184 567.858765,773.991272 566.129456,773.810974 
	C569.230896,771.012268 572.515625,771.982422 575.361572,771.515869 
	C578.441711,771.010864 581.621338,771.112915 584.764954,770.664978 
	C571.236511,767.544189 557.267212,769.034790 543.616089,766.482056 
	C556.218872,763.218689 569.565369,763.724426 582.926147,758.648743 
	C576.427002,754.568481 569.690125,756.365845 563.966492,754.160217 
	C564.051941,751.588684 567.232971,752.444214 567.589539,750.379272 
	C566.545349,748.781738 564.995544,749.328430 563.571045,749.542175 
	C545.208069,752.297668 526.718506,751.699402 508.261444,751.452576 
	C494.250153,751.265259 480.276123,751.054077 466.521606,754.294067 
	C463.583282,754.986145 460.643707,755.364258 457.620575,755.343689 
	C440.295593,755.225769 422.958374,755.710388 405.663513,754.212891 
	C402.919067,753.975342 400.088074,754.036194 397.394073,751.946533 
	C399.304169,750.095520 401.374512,750.727661 403.141113,750.885986 
	C413.112091,751.779602 423.109528,751.709717 433.099670,751.978516 
	C445.012238,752.299194 456.689423,750.865845 468.221222,747.945496 
	C484.256897,743.884521 500.614777,744.512390 516.933655,744.780945 
	C523.759094,744.893188 530.579407,745.294556 537.403625,745.516907 
	C538.554077,745.554504 540.044800,745.783386 540.815857,745.191406 
	C548.704529,739.133667 558.505005,740.119385 567.393127,737.798889 
	C568.986023,737.382996 570.631531,737.168640 572.943481,736.730286 
	C568.719971,731.592712 572.856018,730.290222 576.191040,728.957520 
	C582.651917,726.375793 589.508179,724.811523 596.082947,721.559814 
	C595.462891,719.407288 592.940674,717.005676 597.356628,715.912170 
	C593.361633,713.654114 589.514832,714.449768 585.587402,713.428528 
z"/>
<path fill="#000000" opacity="1.000000" stroke="none" 
	d="
M387.522125,705.714722 
	C367.995544,706.753723 348.905304,706.224304 329.781769,706.904846 
	C336.609955,708.950928 343.502869,710.620117 350.636444,710.712891 
	C364.291656,710.890442 377.952911,711.109375 391.605103,710.894226 
	C411.822723,710.575623 431.780029,712.573547 451.684845,716.019897 
	C465.300964,718.377502 479.107300,719.318787 492.964264,718.919373 
	C495.618408,718.842896 498.273865,718.857483 500.005127,715.819275 
	C502.522614,723.789429 500.815491,726.269409 493.473389,726.159485 
	C481.093018,725.974243 469.088470,722.954102 456.936737,721.065857 
	C442.420471,718.810242 427.782898,718.592896 413.152252,717.932739 
	C392.164520,716.985901 371.257874,719.476990 350.307251,718.979736 
	C334.995636,718.616333 319.744751,717.226685 304.879761,713.176941 
	C302.163330,712.436890 299.534821,711.347290 296.909363,710.308594 
	C294.807953,709.477295 292.998627,708.214966 293.037323,705.641724 
	C293.079163,702.862183 294.594116,700.929382 297.078766,699.844116 
	C300.798523,698.219238 304.736481,697.747131 308.779175,697.704529 
	C323.112579,697.553589 337.292053,699.998169 351.649200,699.877563 
	C389.794006,699.557007 427.823639,697.317566 465.803467,693.963501 
	C466.957214,693.861572 468.128082,693.855042 469.283569,693.925293 
	C469.675293,693.949097 470.044220,694.347717 470.469299,695.313782 
	C443.255463,701.091431 415.653564,703.615906 387.522125,705.714722 
z"/>
<path fill="#000000" opacity="1.000000" stroke="none" 
	d="
M779.582031,738.291382 
	C785.195007,739.039551 790.375427,739.698303 796.887024,740.526367 
	C793.825256,742.789429 791.681030,742.198547 789.699097,742.165344 
	C777.890137,741.967529 766.077087,741.350098 754.315674,743.141541 
	C751.443665,743.579041 748.919739,744.547424 746.498657,746.158020 
	C745.021057,747.141052 743.132629,748.156799 741.468628,748.094238 
	C735.008850,747.851807 732.808960,751.375366 731.970398,757.122314 
	C731.484863,760.449951 730.937439,764.006042 728.355957,767.247253 
	C723.874268,764.100891 719.962646,760.361206 719.872070,754.958252 
	C719.726013,746.251587 728.444275,745.471985 733.944336,741.023071 
	C727.003723,737.132019 719.298096,736.089233 711.930847,733.933716 
	C712.296387,733.269531 712.493408,732.744690 712.588440,732.762573 
	C723.763489,734.860352 734.500977,728.486877 745.576233,730.841125 
	C754.503906,732.738831 763.112061,736.052856 772.239319,737.188171 
	C774.548950,737.475403 776.846313,737.861389 779.582031,738.291382 
z"/>
<path fill="#000000" opacity="1.000000" stroke="none" 
	d="
M730.102417,674.876343 
	C736.920959,672.551758 743.600342,674.591614 750.301147,675.114868 
	C754.076904,675.409729 757.695801,676.407104 761.237305,678.114258 
	C766.776306,680.784424 772.474121,679.919922 778.175232,677.796631 
	C787.444824,674.344238 797.090942,673.326904 807.011230,673.793335 
	C806.782227,675.934265 805.463806,676.068542 804.376709,676.045837 
	C796.972961,675.891052 790.402039,678.811768 783.883911,681.697998 
	C775.400452,685.454468 767.080872,685.952515 758.280579,682.551147 
	C749.755859,679.256042 740.831787,677.193726 731.706665,676.159851 
	C731.131226,676.094727 730.609375,675.557251 730.102417,674.876343 
z"/>
<path fill="#000000" opacity="1.000000" stroke="none" 
	d="
M519.354553,776.470032 
	C509.691711,781.090210 500.444885,781.808289 490.571960,777.812927 
	C483.045807,774.767395 474.965149,773.158142 466.838989,772.152283 
	C465.580719,771.996521 464.163605,771.987793 463.018341,769.840759 
	C473.323578,769.486145 483.253387,769.219055 492.567078,772.940491 
	C498.998901,775.510437 504.906250,776.045288 511.357269,773.449646 
	C520.781006,769.657898 530.693542,769.313782 540.783875,770.347351 
	C533.525574,771.625122 526.422119,773.298096 519.354553,776.470032 
z"/>
</svg>